<svg xmlns="http://www.w3.org/2000/svg" width="53" height="23" viewBox="0 0 53 23">
    <g fill="none" fill-rule="evenodd">
        <g>
            <g>
                <g>
                    <g>
                        <g fill="#666">
                            <path d="M6.148 0L0 4.879 0 7.609 2.696 7.609 2.696 7.609 5.683 5.25 5.683 22.504 6.121 22.946 6.128 22.954 6.128 22.954 9.026 22.954 9.026 22.954 9.469 22.504 9.469.45 9.025.001zM28.848 0L28.411.443 28.405.45 28.404 3.385 28.849 3.834 39.786 3.834 47.334 11.477 39.786 19.121 22.725 19.121 22.725.45 22.28.001 19.403 0 13.256 4.879 13.256 7.609 15.951 7.609 18.939 5.25 18.939 22.504 19.377 22.946 19.384 22.954 22.282 22.954 41.354 22.954 52.689 11.477 41.354 0z" transform="translate(-20 -1079) translate(0 1034) translate(20 40) translate(0 5)"/>
                        </g>
                    </g>
                </g>
            </g>
        </g>
    </g>
</svg>
