<svg xmlns="http://www.w3.org/2000/svg" width="67" height="29" viewBox="0 0 67 29">
    <g fill="none" fill-rule="evenodd">
        <g>
            <g>
                <g>
                    <g fill="#F43142">
                        <path d="M7.771 0L0 6.152 0 9.594 3.408 9.594 3.408 9.594 7.185 6.619 7.185 28.375 7.738 28.932 7.747 28.942 7.747 28.942 11.411 28.942 11.411 28.942 11.971 28.375 11.971.567 11.409.001zM36.469 0L35.916.559 35.908.568 35.907 4.268 36.469 4.834 50.296 4.834 59.838 14.471 50.295 24.109 28.728 24.109 28.728.567 28.166.001 24.528 0 16.757 6.152 16.757 9.594 20.165 9.594 23.942 6.619 23.942 28.375 24.495 28.932 24.504 28.942 28.168 28.942 52.278 28.942 66.606 14.471 52.278 0z" transform="translate(-170 -15) translate(170 11) translate(0 4)"/>
                    </g>
                </g>
            </g>
        </g>
    </g>
</svg>
